<svg width="417" height="66" viewBox="0 0 417 66" fill="none" xmlns="http://www.w3.org/2000/svg">
<path d="M30.1719 65.0703C25.75 65.0703 21.4688 64.0156 17.3281 61.9062C11.6406 58.8906 7.23438 54.3828 4.10938 48.3828C1.60938 43.4766 0.359375 38.2344 0.359375 32.6562C0.359375 29.9219 0.679688 27.1719 1.32031 24.4062C2.92969 17.8906 6.07031 12.4141 10.7422 7.97656C15.6484 3.47656 21.2969 0.90625 27.6875 0.265625C28.5 0.203125 29.3047 0.171875 30.1016 0.171875C35.3359 0.171875 40.2891 1.60156 44.9609 4.46094C46.3516 5.32031 47.6641 6.29688 48.8984 7.39062L48.4766 7.34375C48.1953 7.3125 47.8203 7.28906 47.3516 7.27344C46.8984 7.24219 46.4297 7.22656 45.9453 7.22656C45.3516 7.22656 44.5703 7.26562 43.6016 7.34375C42.6328 7.42188 41.6875 7.6875 40.7656 8.14062C39.8438 8.59375 39.3828 9.32031 39.3828 10.3203V10.3672C35.7891 6.99219 32.0547 4.75781 28.1797 3.66406C26.5859 3.21094 25.0391 2.98438 23.5391 2.98438C21.3672 2.98438 19.2812 3.45312 17.2812 4.39062C16.625 4.75 15.9766 5.13281 15.3359 5.53906C12.3516 7.74219 10.2344 10.8438 8.98438 14.8438C8.14062 17.5781 7.71875 20.5312 7.71875 23.7031C7.71875 25.1875 7.91406 27.5625 8.30469 30.8281C8.69531 34.0781 10.1406 38.2031 12.6406 43.2031C15.2656 48.25 18.3828 52.3594 21.9922 55.5312C25.6172 58.7031 29.3594 60.7422 33.2188 61.6484C34.5156 61.9609 35.7812 62.1172 37.0156 62.1172C39.4375 62.1172 41.7422 61.5234 43.9297 60.3359L43.9531 60.3125C44.2812 60.125 44.6094 59.9219 44.9375 59.7031H44.9141H44.9375L44.9844 59.6797C47.3594 58.0234 49.1953 55.7734 50.4922 52.9297C51.7891 50.0859 52.5391 46.8594 52.7422 43.25H58.2969C56.7812 47.9375 54.4219 52.0469 51.2188 55.5781C46.6094 60.5 41.125 63.5391 34.7656 64.6953C33.2188 64.9453 31.6875 65.0703 30.1719 65.0703ZM102.875 65.0234H93.4531C93.1562 65.0234 92.9453 65.0078 92.8203 64.9766C90.8984 64.5703 89.75 63.3984 89.375 61.4609C89.3594 61.2891 89.3516 61.1094 89.3516 60.9219V33.3125C89.2734 29.5938 87.8359 27.7344 85.0391 27.7344C83.5391 27.7344 81.8203 28.1797 79.8828 29.0703C78.4297 29.7422 77.2109 30.3906 76.2266 31.0156C75.2578 31.625 74.7422 31.9609 74.6797 32.0234C73.6953 32.8047 72.7266 33.6172 71.7734 34.4609V60.6172C71.7734 61.9766 72.2891 63.0469 73.3203 63.8281C74.0391 64.3906 74.8203 64.7578 75.6641 64.9297L76.1094 65.0234H71.7734C68.1641 65.0234 66.2578 65.0078 66.0547 64.9766C64.1328 64.5703 62.9844 63.3984 62.6094 61.4609C62.5938 61.2891 62.5859 42.1641 62.5859 4.08594L63.6406 4.10938C66.8438 4.10938 69.5547 2.80469 71.7734 0.195312V33.2188C76.9922 28.625 81.8125 25.6797 86.2344 24.3828C86.2812 24.3828 86.3125 24.375 86.3281 24.3594C87.5469 24.0625 88.6562 23.9141 89.6562 23.9141C90.9375 23.9141 92.2188 24.25 93.5 24.9219C94.7969 25.5781 95.8516 26.7578 96.6641 28.4609C97.4766 30.1484 98.0078 31.9141 98.2578 33.7578L98.4219 34.9062C98.4688 35.4531 98.5 36.2734 98.5156 37.3672L98.5391 60.6172C98.5391 61.3828 98.6875 62.0312 98.9844 62.5625C99.2812 63.0781 99.6406 63.5 100.062 63.8281C100.484 64.1562 100.906 64.4062 101.328 64.5781C101.766 64.75 102.133 64.8672 102.43 64.9297L102.875 65.0234ZM137.562 60.6172C137.562 61.3828 137.703 62.0312 137.984 62.5625C138.281 63.0781 138.641 63.5 139.062 63.8281C139.5 64.1562 139.93 64.4062 140.352 64.5781C140.789 64.75 141.156 64.8672 141.453 64.9297C141.75 64.9922 141.898 65.0234 141.898 65.0234H137.562C136.172 65.0234 134.781 65.0234 133.391 65.0234C133.297 65.0234 133.203 65.0234 133.109 65.0234C132.547 65.0547 131.984 65.0078 131.422 64.8828C130.078 64.5078 129.148 63.6719 128.633 62.375C126.586 63.1406 124.477 63.7812 122.305 64.2969C120.148 64.8125 117.977 65.0703 115.789 65.0703C113.992 65.0859 112.297 64.7656 110.703 64.1094C109.109 63.4375 107.875 62.2812 107 60.6406C106.266 59.1406 105.906 57.5312 105.922 55.8125C105.938 54.0781 106.281 52.4531 106.953 50.9375C108.047 48.6094 109.648 46.75 111.758 45.3594C113.867 43.9531 116.188 42.8984 118.719 42.1953C121.266 41.4766 123.711 40.9609 126.055 40.6484C126.07 40.6484 126.078 40.6484 126.078 40.6484C126.828 40.3359 127.594 40.0625 128.375 39.8281C128.375 39.5938 128.375 39.3672 128.375 39.1484C128.375 38.0703 128.359 37 128.328 35.9375C128.312 35.7969 128.305 35.6484 128.305 35.4922C128.273 34.1016 128.148 32.7109 127.93 31.3203C127.789 30.3828 127.555 29.4375 127.227 28.4844C126.898 27.5156 126.398 26.6875 125.727 26C124.867 25.2188 123.914 24.9531 122.867 25.2031C121.82 25.4531 120.938 25.9922 120.219 26.8203C119.25 27.9922 118.547 29.3594 118.109 30.9219C117.672 32.4688 117.406 33.9922 117.312 35.4922C116.266 35.5078 115.297 35.8047 114.406 36.3828C113.531 36.9453 112.75 37.5938 112.062 38.3281C111.766 35.6562 112.25 33.125 113.516 30.7344C114.531 28.8906 115.898 27.3828 117.617 26.2109C119.352 25.0391 121.266 24.3281 123.359 24.0781C126.859 23.7656 130 24.6719 132.781 26.7969C133.031 27.0312 133.281 27.2578 133.531 27.4766C133.969 27.8516 134.383 28.2656 134.773 28.7188C135.461 29.5625 136.023 30.4688 136.461 31.4375C137.398 33.5156 137.766 35.6797 137.562 37.9297C137.562 38.9766 137.562 40.0234 137.562 41.0703C137.562 45.1484 137.562 49.2266 137.562 53.3047C137.562 55.7422 137.562 58.1797 137.562 60.6172ZM128.375 61.4844C128.391 61.4844 128.398 61.4844 128.398 61.4844C128.305 60.5469 128.281 59.5938 128.328 58.625C128.359 58.2031 128.375 57.7891 128.375 57.3828C128.375 51.8672 128.375 46.3438 128.375 40.8125C126.062 41.5312 123.914 42.5859 121.93 43.9766C118.508 46.5391 116.656 49.9531 116.375 54.2188C116.266 56.125 116.547 57.9688 117.219 59.75C117.891 61.5312 119.164 62.8047 121.039 63.5703C123.539 63.0547 125.984 62.3594 128.375 61.4844ZM176.352 65.1875C174.508 65.1875 173.18 64.6016 172.367 63.4297C171.867 62.7266 171.602 61.9219 171.57 61.0156C171.555 60 171.547 58.1328 171.547 55.4141L171.57 34.4844L171.594 33.6641C171.594 32.6016 171.453 31.5703 171.172 30.5703C170.5 28.7734 169.141 27.875 167.094 27.875C166.703 27.875 166.297 27.9141 165.875 27.9922C161.984 28.7266 158.031 30.9141 154.016 34.5547L153.992 38.2109C153.961 43.1172 153.945 48.9688 153.945 55.7656C153.945 58.5 153.969 60.2656 154.016 61.0625C154.141 62.2031 154.617 63.125 155.445 63.8281C156.273 64.5156 157.234 64.9453 158.328 65.1172C153.031 65.1172 150.273 65.125 150.055 65.1406C149.852 65.1562 149.648 65.1641 149.445 65.1641C147.805 65.1641 146.57 64.6406 145.742 63.5938C145.164 62.8594 144.859 61.9922 144.828 60.9922C144.812 60.8203 144.805 57.2578 144.805 50.3047V33.8516L144.828 27.9453C145.172 27.9766 145.508 27.9922 145.836 27.9922C147.227 27.9922 148.656 27.6719 150.125 27.0312C151.594 26.3906 152.891 25.3984 154.016 24.0547V33.3359C156.094 31.4766 158.336 29.7344 160.742 28.1094C163.164 26.4688 165.734 25.2656 168.453 24.5C169.516 24.2188 170.586 24.0781 171.664 24.0781C172.039 24.0781 172.68 24.1172 173.586 24.1953C174.508 24.2734 175.57 24.8047 176.773 25.7891C178.445 27.2578 179.594 29.4609 180.219 32.3984C182.172 30.7266 184.258 29.1641 186.477 27.7109C188.711 26.2578 191.078 25.1875 193.578 24.5C194.656 24.2188 195.719 24.0781 196.766 24.0781C197.328 24.0781 198.148 24.1641 199.227 24.3359C200.305 24.4922 201.438 25.2188 202.625 26.5156C204.344 28.5312 205.391 31.3594 205.766 35C205.766 35.8125 205.781 36.625 205.812 37.4375C205.859 38.6562 205.883 42.0703 205.883 47.6797V60.7344C205.883 61.5 206.031 62.1406 206.328 62.6562C206.625 63.1719 206.984 63.5938 207.406 63.9219C207.844 64.25 208.273 64.5078 208.695 64.6953C209.117 64.8672 209.477 64.9844 209.773 65.0469L210.219 65.1406H202.133L201.43 65.1641C199.602 65.1641 198.289 64.5859 197.492 63.4297C196.992 62.7266 196.727 61.9219 196.695 61.0156C196.68 59.4375 196.672 56.1328 196.672 51.1016L196.695 34.4141L196.719 33.7109C196.719 32.6328 196.57 31.5703 196.273 30.5234C195.602 28.7578 194.25 27.875 192.219 27.875C191.891 27.875 191.555 27.8984 191.211 27.9453C187.57 28.5547 183.977 30.3906 180.43 33.4531L180.641 35C180.641 35.7969 180.656 36.5938 180.688 37.3906C180.734 38.1875 180.758 41.0156 180.758 45.875V60.7344C180.758 61.5469 180.961 62.2656 181.367 62.8906C181.789 63.5 182.32 64 182.961 64.3906C183.617 64.7812 184.328 65.0312 185.094 65.1406C180 65.1406 177.328 65.1484 177.078 65.1641C176.828 65.1797 176.586 65.1875 176.352 65.1875ZM253.672 34.0859C255.875 37.8047 256.828 41.8125 256.531 46.1094C256.156 50.3438 254.633 54.1094 251.961 57.4062C249.836 59.9688 247.273 61.8828 244.273 63.1484C241.273 64.3984 238.141 64.9219 234.875 64.7188C234.5 64.7031 234.125 64.6719 233.75 64.625C233.094 64.5469 232.453 64.4297 231.828 64.2734C231.016 64.1016 230.219 63.875 229.438 63.5938C227.969 63.0469 226.578 62.3438 225.266 61.4844C225.25 61.4844 225.242 61.4766 225.242 61.4609C224.867 63.3984 223.719 64.5703 221.797 64.9766C221.594 65.0078 221.383 65.0234 221.164 65.0234H211.742C211.742 65.0234 211.891 64.9922 212.188 64.9297C212.484 64.8672 212.844 64.75 213.266 64.5781C213.688 64.4062 214.109 64.1562 214.531 63.8281C214.969 63.5 215.336 63.0781 215.633 62.5625C215.93 62.0312 216.078 61.3828 216.078 60.6172V4.08594C216.078 4.08594 216.375 4.10156 216.969 4.13281C217.562 4.14844 218.328 4.0625 219.266 3.875C220.203 3.6875 221.195 3.3125 222.242 2.75C223.305 2.17188 224.312 1.32031 225.266 0.195312V27.6172C227.406 26.1953 229.773 25.2188 232.367 24.6875C232.648 24.6406 233 24.5938 233.422 24.5469C233.844 24.4844 234.219 24.4375 234.547 24.4062C234.891 24.375 235.086 24.3516 235.133 24.3359C235.742 24.3047 236.359 24.2969 236.984 24.3125C239.672 24.4062 242.25 25.0078 244.719 26.1172C248.5 27.8828 251.484 30.5391 253.672 34.0859ZM232.484 63.4766C232.859 63.5547 233.234 63.6172 233.609 63.6641C234.047 63.4922 234.469 63.3047 234.875 63.1016C234.875 63.0859 234.875 63.0781 234.875 63.0781C234.891 63.0781 234.898 63.0781 234.898 63.0781C238.57 61.1562 241.406 58.3828 243.406 54.7578C245.516 50.8203 246.438 46.6406 246.172 42.2188C245.906 37.7969 244.469 33.7734 241.859 30.1484C240.422 28.1953 238.695 26.5625 236.68 25.25C236.086 25.2344 235.484 25.25 234.875 25.2969C233.109 25.4375 231.383 25.8125 229.695 26.4219C228.117 27 226.641 27.7734 225.266 28.7422V53.5391V60.3359C227.422 61.8672 229.828 62.9141 232.484 63.4766ZM291.289 27.1484C294.977 29.4922 297.688 32.625 299.422 36.5469C301.172 40.4688 301.688 44.5859 300.969 48.8984C300.203 52.9922 298.352 56.5156 295.414 59.4688C294.523 60.3438 293.562 61.125 292.531 61.8125C291.5 62.4844 290.414 63.0625 289.273 63.5469C287.695 64.2031 286.062 64.6406 284.375 64.8594C280.25 65.3438 276.328 64.6484 272.609 62.7734C268.734 60.7266 265.758 57.7812 263.68 53.9375C263.18 53 262.75 52.0312 262.391 51.0312C261 47 260.82 42.9531 261.852 38.8906C262.883 34.8125 265.023 31.375 268.273 28.5781C271.602 25.8594 275.414 24.375 279.711 24.125C283.867 23.9688 287.727 24.9766 291.289 27.1484ZM271.648 27.4062H271.625C270.188 28.3281 269.273 29.8984 268.883 32.1172C268.508 34.3203 268.648 36.9062 269.305 39.875C269.961 42.8281 271.133 45.8984 272.82 49.0859C274.477 52.1641 276.312 54.7891 278.328 56.9609C280.359 59.1172 282.375 60.6797 284.375 61.6484C286.375 62.6172 288.172 62.8359 289.766 62.3047C290.141 62.1172 290.508 61.9219 290.867 61.7188C292.227 60.7188 293.07 59.1172 293.398 56.9141C293.727 54.7109 293.555 52.1562 292.883 49.25C292.227 46.3438 291.078 43.3359 289.438 40.2266C287.703 37.0234 285.781 34.3203 283.672 32.1172C281.562 29.9141 279.477 28.3672 277.414 27.4766C275.367 26.5703 273.562 26.4766 272 27.1953C272 27.1953 272 27.2031 272 27.2188C271.875 27.2812 271.758 27.3438 271.648 27.4062ZM336.664 27.1484C340.352 29.4922 343.062 32.625 344.797 36.5469C346.547 40.4688 347.062 44.5859 346.344 48.8984C345.578 52.9922 343.727 56.5156 340.789 59.4688C339.898 60.3438 338.938 61.125 337.906 61.8125C336.875 62.4844 335.789 63.0625 334.648 63.5469C333.07 64.2031 331.438 64.6406 329.75 64.8594C325.625 65.3438 321.703 64.6484 317.984 62.7734C314.109 60.7266 311.133 57.7812 309.055 53.9375C308.555 53 308.125 52.0312 307.766 51.0312C306.375 47 306.195 42.9531 307.227 38.8906C308.258 34.8125 310.398 31.375 313.648 28.5781C316.977 25.8594 320.789 24.375 325.086 24.125C329.242 23.9688 333.102 24.9766 336.664 27.1484ZM317.023 27.4062H317C315.562 28.3281 314.648 29.8984 314.258 32.1172C313.883 34.3203 314.023 36.9062 314.68 39.875C315.336 42.8281 316.508 45.8984 318.195 49.0859C319.852 52.1641 321.688 54.7891 323.703 56.9609C325.734 59.1172 327.75 60.6797 329.75 61.6484C331.75 62.6172 333.547 62.8359 335.141 62.3047C335.516 62.1172 335.883 61.9219 336.242 61.7188C337.602 60.7188 338.445 59.1172 338.773 56.9141C339.102 54.7109 338.93 52.1562 338.258 49.25C337.602 46.3438 336.453 43.3359 334.812 40.2266C333.078 37.0234 331.156 34.3203 329.047 32.1172C326.938 29.9141 324.852 28.3672 322.789 27.4766C320.742 26.5703 318.938 26.4766 317.375 27.1953C317.375 27.1953 317.375 27.2031 317.375 27.2188C317.25 27.2812 317.133 27.3438 317.023 27.4062ZM368.914 65.0234H366.43C363.961 64.8359 361.766 63.9688 359.844 62.4219C358.469 61.3125 357.383 59.9609 356.586 58.3672C355.789 56.7578 355.391 55.0078 355.391 53.1172V24.9219H345.383V23.9844H355.391V4.22656L356.258 4.27344C359.508 4.27344 362.281 2.96094 364.578 0.335938V23.9844H374.586V24.9219H364.578V60.6172C364.578 61.4297 364.75 62.1094 365.094 62.6562C365.656 63.5938 366.508 64.2656 367.648 64.6719L368.914 65.0234ZM416.797 65.0234H407.375C407.078 65.0234 406.867 65.0078 406.742 64.9766C404.82 64.5703 403.672 63.3984 403.297 61.4609C403.281 61.2891 403.273 61.1094 403.273 60.9219V33.3125C403.195 29.5938 401.758 27.7344 398.961 27.7344C397.461 27.7344 395.742 28.1797 393.805 29.0703C392.352 29.7422 391.133 30.3906 390.148 31.0156C389.18 31.625 388.664 31.9609 388.602 32.0234C387.617 32.8047 386.648 33.6172 385.695 34.4609V60.6172C385.695 61.9766 386.211 63.0469 387.242 63.8281C387.961 64.3906 388.742 64.7578 389.586 64.9297L390.031 65.0234H385.695C382.086 65.0234 380.18 65.0078 379.977 64.9766C378.055 64.5703 376.906 63.3984 376.531 61.4609C376.516 61.2891 376.508 42.1641 376.508 4.08594L377.562 4.10938C380.766 4.10938 383.477 2.80469 385.695 0.195312V33.2188C390.914 28.625 395.734 25.6797 400.156 24.3828C400.203 24.3828 400.234 24.375 400.25 24.3594C401.469 24.0625 402.578 23.9141 403.578 23.9141C404.859 23.9141 406.141 24.25 407.422 24.9219C408.719 25.5781 409.773 26.7578 410.586 28.4609C411.398 30.1484 411.93 31.9141 412.18 33.7578L412.344 34.9062C412.391 35.4531 412.422 36.2734 412.438 37.3672L412.461 60.6172C412.461 61.3828 412.609 62.0312 412.906 62.5625C413.203 63.0781 413.562 63.5 413.984 63.8281C414.406 64.1562 414.828 64.4062 415.25 64.5781C415.688 64.75 416.055 64.8672 416.352 64.9297L416.797 65.0234Z" fill="white"/>
</svg>
