<svg width="211" height="116" viewBox="0 0 211 116" fill="none" xmlns="http://www.w3.org/2000/svg">
<rect width="211" height="116" fill="#C8C8C8"/>
<path d="M61.4629 59.0176C60.3574 59.0176 59.2871 58.7539 58.252 58.2266C56.8301 57.4727 55.7285 56.3457 54.9473 54.8457C54.3223 53.6191 54.0098 52.3086 54.0098 50.9141C54.0098 50.2305 54.0898 49.543 54.25 48.8516C54.6523 47.2227 55.4375 45.8535 56.6055 44.7441C57.832 43.6191 59.2441 42.9766 60.8418 42.8164C61.0449 42.8008 61.2461 42.793 61.4453 42.793C62.7539 42.793 63.9922 43.1504 65.1602 43.8652C65.5078 44.0801 65.8359 44.3242 66.1445 44.5977L66.0391 44.5859C65.9688 44.5781 65.875 44.5723 65.7578 44.5684C65.6445 44.5605 65.5273 44.5566 65.4062 44.5566C65.2578 44.5566 65.0625 44.5664 64.8203 44.5859C64.5781 44.6055 64.3418 44.6719 64.1113 44.7852C63.8809 44.8984 63.7656 45.0801 63.7656 45.3301V45.3418C62.8672 44.498 61.9336 43.9395 60.9648 43.666C60.5664 43.5527 60.1797 43.4961 59.8047 43.4961C59.2617 43.4961 58.7402 43.6133 58.2402 43.8477C58.0762 43.9375 57.9141 44.0332 57.7539 44.1348C57.0078 44.6855 56.4785 45.4609 56.166 46.4609C55.9551 47.1445 55.8496 47.8828 55.8496 48.6758C55.8496 49.0469 55.8984 49.6406 55.9961 50.457C56.0938 51.2695 56.4551 52.3008 57.0801 53.5508C57.7363 54.8125 58.5156 55.8398 59.418 56.6328C60.3242 57.4258 61.2598 57.9355 62.2246 58.1621C62.5488 58.2402 62.8652 58.2793 63.1738 58.2793C63.7793 58.2793 64.3555 58.1309 64.9023 57.834L64.9082 57.8281C64.9902 57.7812 65.0723 57.7305 65.1543 57.6758H65.1484H65.1543L65.166 57.6699C65.7598 57.2559 66.2188 56.6934 66.543 55.9824C66.8672 55.2715 67.0547 54.4648 67.1055 53.5625H68.4941C68.1152 54.7344 67.5254 55.7617 66.7246 56.6445C65.5723 57.875 64.2012 58.6348 62.6113 58.9238C62.2246 58.9863 61.8418 59.0176 61.4629 59.0176ZM79.6387 59.0059H77.2832C77.209 59.0059 77.1562 59.002 77.125 58.9941C76.6445 58.8926 76.3574 58.5996 76.2637 58.1152C76.2598 58.0723 76.2578 58.0273 76.2578 57.9805V51.0781C76.2383 50.1484 75.8789 49.6836 75.1797 49.6836C74.8047 49.6836 74.375 49.7949 73.8906 50.0176C73.5273 50.1855 73.2227 50.3477 72.9766 50.5039C72.7344 50.6562 72.6055 50.7402 72.5898 50.7559C72.3438 50.9512 72.1016 51.1543 71.8633 51.3652V57.9043C71.8633 58.2441 71.9922 58.5117 72.25 58.707C72.4297 58.8477 72.625 58.9395 72.8359 58.9824L72.9473 59.0059H71.8633C70.9609 59.0059 70.4844 59.002 70.4336 58.9941C69.9531 58.8926 69.666 58.5996 69.5723 58.1152C69.5684 58.0723 69.5664 53.291 69.5664 43.7715L69.8301 43.7773C70.6309 43.7773 71.3086 43.4512 71.8633 42.7988V51.0547C73.168 49.9062 74.373 49.1699 75.4785 48.8457C75.4902 48.8457 75.498 48.8438 75.502 48.8398C75.8066 48.7656 76.084 48.7285 76.334 48.7285C76.6543 48.7285 76.9746 48.8125 77.2949 48.9805C77.6191 49.1445 77.8828 49.4395 78.0859 49.8652C78.2891 50.2871 78.4219 50.7285 78.4844 51.1895L78.5254 51.4766C78.5371 51.6133 78.5449 51.8184 78.5488 52.0918L78.5547 57.9043C78.5547 58.0957 78.5918 58.2578 78.666 58.3906C78.7402 58.5195 78.8301 58.625 78.9355 58.707C79.041 58.7891 79.1465 58.8516 79.252 58.8945C79.3613 58.9375 79.4531 58.9668 79.5273 58.9824L79.6387 59.0059ZM88.3105 57.9043C88.3105 58.0957 88.3457 58.2578 88.416 58.3906C88.4902 58.5195 88.5801 58.625 88.6855 58.707C88.7949 58.7891 88.9023 58.8516 89.0078 58.8945C89.1172 58.9375 89.209 58.9668 89.2832 58.9824C89.3574 58.998 89.3945 59.0059 89.3945 59.0059H88.3105C87.9629 59.0059 87.6152 59.0059 87.2676 59.0059C87.2441 59.0059 87.2207 59.0059 87.1973 59.0059C87.0566 59.0137 86.916 59.002 86.7754 58.9707C86.4395 58.877 86.207 58.668 86.0781 58.3438C85.5664 58.5352 85.0391 58.6953 84.4961 58.8242C83.957 58.9531 83.4141 59.0176 82.8672 59.0176C82.418 59.0215 81.9941 58.9414 81.5957 58.7773C81.1973 58.6094 80.8887 58.3203 80.6699 57.9102C80.4863 57.5352 80.3965 57.1328 80.4004 56.7031C80.4043 56.2695 80.4902 55.8633 80.6582 55.4844C80.9316 54.9023 81.332 54.4375 81.8594 54.0898C82.3867 53.7383 82.9668 53.4746 83.5996 53.2988C84.2363 53.1191 84.8477 52.9902 85.4336 52.9121C85.4375 52.9121 85.4395 52.9121 85.4395 52.9121C85.627 52.834 85.8184 52.7656 86.0137 52.707C86.0137 52.6484 86.0137 52.5918 86.0137 52.5371C86.0137 52.2676 86.0098 52 86.002 51.7344C85.998 51.6992 85.9961 51.6621 85.9961 51.623C85.9883 51.2754 85.957 50.9277 85.9023 50.5801C85.8672 50.3457 85.8086 50.1094 85.7266 49.8711C85.6445 49.6289 85.5195 49.4219 85.3516 49.25C85.1367 49.0547 84.8984 48.9883 84.6367 49.0508C84.375 49.1133 84.1543 49.248 83.9746 49.4551C83.7324 49.748 83.5566 50.0898 83.4473 50.4805C83.3379 50.8672 83.2715 51.248 83.248 51.623C82.9863 51.627 82.7441 51.7012 82.5215 51.8457C82.3027 51.9863 82.1074 52.1484 81.9355 52.332C81.8613 51.6641 81.9824 51.0312 82.2988 50.4336C82.5527 49.9727 82.8945 49.5957 83.3242 49.3027C83.7578 49.0098 84.2363 48.832 84.7598 48.7695C85.6348 48.6914 86.4199 48.918 87.1152 49.4492C87.1777 49.5078 87.2402 49.5645 87.3027 49.6191C87.4121 49.7129 87.5156 49.8164 87.6133 49.9297C87.7852 50.1406 87.9258 50.3672 88.0352 50.6094C88.2695 51.1289 88.3613 51.6699 88.3105 52.2324C88.3105 52.4941 88.3105 52.7559 88.3105 53.0176C88.3105 54.0371 88.3105 55.0566 88.3105 56.0762C88.3105 56.6855 88.3105 57.2949 88.3105 57.9043ZM86.0137 58.1211C86.0176 58.1211 86.0195 58.1211 86.0195 58.1211C85.9961 57.8867 85.9902 57.6484 86.002 57.4062C86.0098 57.3008 86.0137 57.1973 86.0137 57.0957C86.0137 55.7168 86.0137 54.3359 86.0137 52.9531C85.4355 53.1328 84.8984 53.3965 84.4023 53.7441C83.5469 54.3848 83.084 55.2383 83.0137 56.3047C82.9863 56.7812 83.0566 57.2422 83.2246 57.6875C83.3926 58.1328 83.7109 58.4512 84.1797 58.6426C84.8047 58.5137 85.416 58.3398 86.0137 58.1211ZM98.0078 59.0469C97.5469 59.0469 97.2148 58.9004 97.0117 58.6074C96.8867 58.4316 96.8203 58.2305 96.8125 58.0039C96.8086 57.75 96.8066 57.2832 96.8066 56.6035L96.8125 51.3711L96.8184 51.166C96.8184 50.9004 96.7832 50.6426 96.7129 50.3926C96.5449 49.9434 96.2051 49.7188 95.6934 49.7188C95.5957 49.7188 95.4941 49.7285 95.3887 49.748C94.416 49.9316 93.4277 50.4785 92.4238 51.3887L92.418 52.3027C92.4102 53.5293 92.4062 54.9922 92.4062 56.6914C92.4062 57.375 92.4121 57.8164 92.4238 58.0156C92.4551 58.3008 92.5742 58.5312 92.7812 58.707C92.9883 58.8789 93.2285 58.9863 93.502 59.0293C92.1777 59.0293 91.4883 59.0312 91.4336 59.0352C91.3828 59.0391 91.332 59.041 91.2812 59.041C90.8711 59.041 90.5625 58.9102 90.3555 58.6484C90.2109 58.4648 90.1348 58.248 90.127 57.998C90.123 57.9551 90.1211 57.0645 90.1211 55.3262V51.2129L90.127 49.7363C90.2129 49.7441 90.2969 49.748 90.3789 49.748C90.7266 49.748 91.084 49.668 91.4512 49.5078C91.8184 49.3477 92.1426 49.0996 92.4238 48.7637V51.084C92.9434 50.6191 93.5039 50.1836 94.1055 49.7773C94.7109 49.3672 95.3535 49.0664 96.0332 48.875C96.2988 48.8047 96.5664 48.7695 96.8359 48.7695C96.9297 48.7695 97.0898 48.7793 97.3164 48.7988C97.5469 48.8184 97.8125 48.9512 98.1133 49.1973C98.5312 49.5645 98.8184 50.1152 98.9746 50.8496C99.4629 50.4316 99.9844 50.041 100.539 49.6777C101.098 49.3145 101.689 49.0469 102.314 48.875C102.584 48.8047 102.85 48.7695 103.111 48.7695C103.252 48.7695 103.457 48.791 103.727 48.834C103.996 48.873 104.279 49.0547 104.576 49.3789C105.006 49.8828 105.268 50.5898 105.361 51.5C105.361 51.7031 105.365 51.9062 105.373 52.1094C105.385 52.4141 105.391 53.2676 105.391 54.6699V57.9336C105.391 58.125 105.428 58.2852 105.502 58.4141C105.576 58.543 105.666 58.6484 105.771 58.7305C105.881 58.8125 105.988 58.877 106.094 58.9238C106.199 58.9668 106.289 58.9961 106.363 59.0117L106.475 59.0352H104.453L104.277 59.041C103.82 59.041 103.492 58.8965 103.293 58.6074C103.168 58.4316 103.102 58.2305 103.094 58.0039C103.09 57.6094 103.088 56.7832 103.088 55.5254L103.094 51.3535L103.1 51.1777C103.1 50.9082 103.062 50.6426 102.988 50.3809C102.82 49.9395 102.482 49.7188 101.975 49.7188C101.893 49.7188 101.809 49.7246 101.723 49.7363C100.812 49.8887 99.9141 50.3477 99.0273 51.1133L99.0801 51.5C99.0801 51.6992 99.084 51.8984 99.0918 52.0977C99.1035 52.2969 99.1094 53.0039 99.1094 54.2188V57.9336C99.1094 58.1367 99.1602 58.3164 99.2617 58.4727C99.3672 58.625 99.5 58.75 99.6602 58.8477C99.8242 58.9453 100.002 59.0078 100.193 59.0352C98.9199 59.0352 98.252 59.0371 98.1895 59.041C98.127 59.0449 98.0664 59.0469 98.0078 59.0469ZM117.338 51.2715C117.889 52.2012 118.127 53.2031 118.053 54.2773C117.959 55.3359 117.578 56.2773 116.91 57.1016C116.379 57.7422 115.738 58.2207 114.988 58.5371C114.238 58.8496 113.455 58.9805 112.639 58.9297C112.545 58.9258 112.451 58.918 112.357 58.9062C112.193 58.8867 112.033 58.8574 111.877 58.8184C111.674 58.7754 111.475 58.7188 111.279 58.6484C110.912 58.5117 110.564 58.3359 110.236 58.1211C110.232 58.1211 110.23 58.1191 110.23 58.1152C110.137 58.5996 109.85 58.8926 109.369 58.9941C109.318 59.002 109.266 59.0059 109.211 59.0059H106.855C106.855 59.0059 106.893 58.998 106.967 58.9824C107.041 58.9668 107.131 58.9375 107.236 58.8945C107.342 58.8516 107.447 58.7891 107.553 58.707C107.662 58.625 107.754 58.5195 107.828 58.3906C107.902 58.2578 107.939 58.0957 107.939 57.9043V43.7715C107.939 43.7715 108.014 43.7754 108.162 43.7832C108.311 43.7871 108.502 43.7656 108.736 43.7188C108.971 43.6719 109.219 43.5781 109.48 43.4375C109.746 43.293 109.998 43.0801 110.236 42.7988V49.6543C110.771 49.2988 111.363 49.0547 112.012 48.9219C112.082 48.9102 112.17 48.8984 112.275 48.8867C112.381 48.8711 112.475 48.8594 112.557 48.8516C112.643 48.8438 112.691 48.8379 112.703 48.834C112.855 48.8262 113.01 48.8242 113.166 48.8281C113.838 48.8516 114.482 49.002 115.1 49.2793C116.045 49.7207 116.791 50.3848 117.338 51.2715ZM112.041 58.6191C112.135 58.6387 112.229 58.6543 112.322 58.666C112.432 58.623 112.537 58.5762 112.639 58.5254C112.639 58.5215 112.639 58.5195 112.639 58.5195C112.643 58.5195 112.645 58.5195 112.645 58.5195C113.562 58.0391 114.271 57.3457 114.771 56.4395C115.299 55.4551 115.529 54.4102 115.463 53.3047C115.396 52.1992 115.037 51.1934 114.385 50.2871C114.025 49.7988 113.594 49.3906 113.09 49.0625C112.941 49.0586 112.791 49.0625 112.639 49.0742C112.197 49.1094 111.766 49.2031 111.344 49.3555C110.949 49.5 110.58 49.6934 110.236 49.9355V56.1348V57.834C110.775 58.2168 111.377 58.4785 112.041 58.6191ZM126.742 49.5371C127.664 50.123 128.342 50.9062 128.775 51.8867C129.213 52.8672 129.342 53.8965 129.162 54.9746C128.971 55.998 128.508 56.8789 127.773 57.6172C127.551 57.8359 127.311 58.0312 127.053 58.2031C126.795 58.3711 126.523 58.5156 126.238 58.6367C125.844 58.8008 125.436 58.9102 125.014 58.9648C123.982 59.0859 123.002 58.9121 122.072 58.4434C121.104 57.9316 120.359 57.1953 119.84 56.2344C119.715 56 119.607 55.7578 119.518 55.5078C119.17 54.5 119.125 53.4883 119.383 52.4727C119.641 51.4531 120.176 50.5938 120.988 49.8945C121.82 49.2148 122.773 48.8438 123.848 48.7812C124.887 48.7422 125.852 48.9941 126.742 49.5371ZM121.832 49.6016H121.826C121.467 49.832 121.238 50.2246 121.141 50.7793C121.047 51.3301 121.082 51.9766 121.246 52.7188C121.41 53.457 121.703 54.2246 122.125 55.0215C122.539 55.791 122.998 56.4473 123.502 56.9902C124.01 57.5293 124.514 57.9199 125.014 58.1621C125.514 58.4043 125.963 58.459 126.361 58.3262C126.455 58.2793 126.547 58.2305 126.637 58.1797C126.977 57.9297 127.188 57.5293 127.27 56.9785C127.352 56.4277 127.309 55.7891 127.141 55.0625C126.977 54.3359 126.689 53.584 126.279 52.8066C125.846 52.0059 125.365 51.3301 124.838 50.7793C124.311 50.2285 123.789 49.8418 123.273 49.6191C122.762 49.3926 122.311 49.3691 121.92 49.5488C121.92 49.5488 121.92 49.5508 121.92 49.5547C121.889 49.5703 121.859 49.5859 121.832 49.6016ZM138.086 49.5371C139.008 50.123 139.686 50.9062 140.119 51.8867C140.557 52.8672 140.686 53.8965 140.506 54.9746C140.314 55.998 139.852 56.8789 139.117 57.6172C138.895 57.8359 138.654 58.0312 138.396 58.2031C138.139 58.3711 137.867 58.5156 137.582 58.6367C137.188 58.8008 136.779 58.9102 136.357 58.9648C135.326 59.0859 134.346 58.9121 133.416 58.4434C132.447 57.9316 131.703 57.1953 131.184 56.2344C131.059 56 130.951 55.7578 130.861 55.5078C130.514 54.5 130.469 53.4883 130.727 52.4727C130.984 51.4531 131.52 50.5938 132.332 49.8945C133.164 49.2148 134.117 48.8438 135.191 48.7812C136.23 48.7422 137.195 48.9941 138.086 49.5371ZM133.176 49.6016H133.17C132.811 49.832 132.582 50.2246 132.484 50.7793C132.391 51.3301 132.426 51.9766 132.59 52.7188C132.754 53.457 133.047 54.2246 133.469 55.0215C133.883 55.791 134.342 56.4473 134.846 56.9902C135.354 57.5293 135.857 57.9199 136.357 58.1621C136.857 58.4043 137.307 58.459 137.705 58.3262C137.799 58.2793 137.891 58.2305 137.98 58.1797C138.32 57.9297 138.531 57.5293 138.613 56.9785C138.695 56.4277 138.652 55.7891 138.484 55.0625C138.32 54.3359 138.033 53.584 137.623 52.8066C137.189 52.0059 136.709 51.3301 136.182 50.7793C135.654 50.2285 135.133 49.8418 134.617 49.6191C134.105 49.3926 133.654 49.3691 133.264 49.5488C133.264 49.5488 133.264 49.5508 133.264 49.5547C133.232 49.5703 133.203 49.5859 133.176 49.6016ZM146.148 59.0059H145.527C144.91 58.959 144.361 58.7422 143.881 58.3555C143.537 58.0781 143.266 57.7402 143.066 57.3418C142.867 56.9395 142.768 56.502 142.768 56.0293V48.9805H140.266V48.7461H142.768V43.8066L142.984 43.8184C143.797 43.8184 144.49 43.4902 145.064 42.834V48.7461H147.566V48.9805H145.064V57.9043C145.064 58.1074 145.107 58.2773 145.193 58.4141C145.334 58.6484 145.547 58.8164 145.832 58.918L146.148 59.0059ZM158.119 59.0059H155.764C155.689 59.0059 155.637 59.002 155.605 58.9941C155.125 58.8926 154.838 58.5996 154.744 58.1152C154.74 58.0723 154.738 58.0273 154.738 57.9805V51.0781C154.719 50.1484 154.359 49.6836 153.66 49.6836C153.285 49.6836 152.855 49.7949 152.371 50.0176C152.008 50.1855 151.703 50.3477 151.457 50.5039C151.215 50.6562 151.086 50.7402 151.07 50.7559C150.824 50.9512 150.582 51.1543 150.344 51.3652V57.9043C150.344 58.2441 150.473 58.5117 150.73 58.707C150.91 58.8477 151.105 58.9395 151.316 58.9824L151.428 59.0059H150.344C149.441 59.0059 148.965 59.002 148.914 58.9941C148.434 58.8926 148.146 58.5996 148.053 58.1152C148.049 58.0723 148.047 53.291 148.047 43.7715L148.311 43.7773C149.111 43.7773 149.789 43.4512 150.344 42.7988V51.0547C151.648 49.9062 152.854 49.1699 153.959 48.8457C153.971 48.8457 153.979 48.8438 153.982 48.8398C154.287 48.7656 154.564 48.7285 154.814 48.7285C155.135 48.7285 155.455 48.8125 155.775 48.9805C156.1 49.1445 156.363 49.4395 156.566 49.8652C156.77 50.2871 156.902 50.7285 156.965 51.1895L157.006 51.4766C157.018 51.6133 157.025 51.8184 157.029 52.0918L157.035 57.9043C157.035 58.0957 157.072 58.2578 157.146 58.3906C157.221 58.5195 157.311 58.625 157.416 58.707C157.521 58.7891 157.627 58.8516 157.732 58.8945C157.842 58.9375 157.934 58.9668 158.008 58.9824L158.119 59.0059Z" fill="#383838"/>
<path opacity="0.62" d="M52.0996 67.1562C52.1113 67.1562 52.1113 67.1562 52.1113 67.1562C52.2402 67.1562 52.3457 67.2617 52.3457 67.3906C52.3457 67.4258 52.334 67.4609 52.3223 67.4961C52.041 68.0586 52.0293 68.5156 52.2051 68.8789C52.3691 69.2422 52.709 69.5234 53.2129 69.6641C54.2207 69.9688 55.8145 69.6875 57.3848 68.4219C57.4316 68.3867 57.4785 68.3633 57.5371 68.3633C57.666 68.3633 57.7715 68.4688 57.7715 68.5977C57.7715 68.668 57.7363 68.7383 57.6895 68.7852C56.0254 70.1328 54.291 70.4727 53.084 70.1211C52.4863 69.9453 52.0059 69.582 51.7715 69.0781C51.6777 68.8789 51.6309 68.6562 51.6191 68.4336C51.5137 68.5625 51.4082 68.7031 51.291 68.8438C51.0215 69.1602 50.752 69.4766 50.4941 69.6992C50.3652 69.8047 50.248 69.8984 50.1191 69.957C49.9902 70.0156 49.8027 70.0508 49.6504 69.9336C49.5449 69.8516 49.498 69.7344 49.4746 69.6289C49.4629 69.5117 49.4746 69.4062 49.4863 69.2891C49.5215 69.0547 49.6152 68.7969 49.7324 68.5391C49.8613 68.293 50.0254 68.0469 50.2129 67.8477C50.4004 67.6602 50.6348 67.4961 50.9043 67.4961C51.2207 67.4961 51.4199 67.6719 51.5254 67.7891C51.748 67.4961 51.9004 67.2734 51.9004 67.2734C51.9121 67.2617 51.9238 67.25 51.9355 67.2383C51.9824 67.1914 52.041 67.1562 52.0996 67.1562ZM50.9043 67.9648C50.8223 67.9648 50.6816 68.0352 50.541 68.1758C50.4004 68.3164 50.2598 68.5273 50.1543 68.75C50.0488 68.9727 49.9785 69.1953 49.9551 69.3594C49.9434 69.4297 49.9434 69.4766 49.9434 69.5117C50.002 69.4883 50.084 69.4297 50.1895 69.3359C50.4004 69.1484 50.6699 68.8555 50.9277 68.5508C51.0332 68.4219 51.1387 68.293 51.2324 68.1758C51.2207 68.1641 51.209 68.1523 51.209 68.1406C51.209 68.1406 51.1035 67.9648 50.9043 67.9648ZM60.9004 62.9023C60.9824 62.9023 61.0645 62.9141 61.1465 62.9609C61.2402 63.0312 61.2988 63.1367 61.3105 63.2422C61.334 63.3359 61.3223 63.418 61.2988 63.5117C61.252 63.6875 61.1699 63.8984 61.0527 64.1211C60.9473 64.332 60.8184 64.543 60.6777 64.7773C61.8496 64.7773 62.9512 64.8594 63.6895 65.082C63.7832 65.1055 63.8535 65.1992 63.8535 65.3047C63.8535 65.4336 63.748 65.5391 63.6191 65.5391C63.5957 65.5391 63.5723 65.5391 63.5488 65.5273C62.8691 65.3281 61.6387 65.2461 60.373 65.2578C60.2676 65.4102 60.1504 65.5742 60.0332 65.7383C59.623 66.3242 59.1777 66.9219 58.7793 67.4023C58.4043 67.8711 58.0879 68.2227 57.8652 68.4336C57.5371 69.5586 57.748 70.2734 58.0996 70.6133C58.3574 70.8711 58.709 71 59.166 71C59.623 71 60.1621 70.8828 60.7246 70.6602C61.8496 70.2148 63.0566 69.3711 63.9238 68.4336C63.959 68.3867 64.0293 68.3633 64.0996 68.3633C64.2285 68.3633 64.334 68.4688 64.334 68.5977C64.334 68.6562 64.2988 68.7148 64.2637 68.75C63.3496 69.7461 62.1074 70.6133 60.9004 71.0938C60.291 71.3281 59.7051 71.4688 59.166 71.4688C58.627 71.4688 58.123 71.3164 57.7598 70.9531C57.209 70.3906 57.0215 69.3477 57.5371 67.9062C57.8535 67.0391 58.2871 66.1133 58.7441 65.3164C58.1816 65.3516 57.6543 65.3984 57.1973 65.457C56.5762 65.5273 56.0723 65.6328 55.8965 65.7031C55.873 65.7148 55.8379 65.7266 55.8145 65.7266C55.6738 65.7266 55.5801 65.6211 55.5801 65.4922C55.5801 65.3867 55.6387 65.3047 55.7207 65.2695C56.0137 65.1523 56.4941 65.0703 57.1387 64.9883C57.6895 64.918 58.3457 64.8594 59.0371 64.8242C59.1191 64.6836 59.2129 64.543 59.3066 64.4023C59.623 63.9219 59.9395 63.5234 60.2324 63.2539C60.373 63.1133 60.5137 63.0195 60.6543 62.9492C60.7246 62.9258 60.8184 62.9023 60.9004 62.9023ZM60.8418 63.3828C60.7715 63.4062 60.666 63.4883 60.5488 63.5938C60.3027 63.8164 60.0098 64.2031 59.6934 64.6602C59.6699 64.707 59.6348 64.7539 59.5996 64.8008C59.7754 64.7891 59.9512 64.7891 60.1152 64.7891C60.3262 64.4609 60.502 64.168 60.6309 63.9102C60.748 63.6992 60.8184 63.5234 60.8418 63.4062C60.8418 63.3945 60.8418 63.3945 60.8418 63.3828ZM59.7988 65.2578C59.6582 65.2695 59.5176 65.2695 59.377 65.2812C59.3535 65.2812 59.3301 65.2812 59.3066 65.2812C58.9551 65.8672 58.6152 66.5469 58.3223 67.2148C58.3457 67.1797 58.3809 67.1445 58.416 67.1094C58.8027 66.6289 59.248 66.043 59.6465 65.4688C59.7051 65.3984 59.752 65.3281 59.7988 65.2578ZM66.666 67.25C66.7949 67.25 66.9004 67.3555 66.9004 67.4844C66.9004 67.5195 66.9004 67.543 66.8887 67.5664C66.6191 68.3398 66.666 68.8438 66.9004 69.1836C67.123 69.5234 67.5684 69.7461 68.2246 69.8164C69.2324 69.9219 70.7676 69.4062 71.998 68.4219C72.0332 68.3867 72.0918 68.3633 72.1504 68.3633C72.2793 68.3633 72.3848 68.4688 72.3848 68.5977C72.3848 68.6797 72.3496 68.75 72.291 68.7852C70.9785 69.8398 69.3848 70.4023 68.1777 70.2852C67.4395 70.2031 66.8418 69.9453 66.502 69.4531C66.3262 69.1719 66.2324 68.832 66.2441 68.4336C66.0566 68.668 65.8457 68.9258 65.623 69.1602C65.3887 69.418 65.1426 69.6641 64.8965 69.8398C64.7676 69.9219 64.6387 69.9805 64.4863 70.0156C64.3457 70.0391 64.1816 70.0156 64.041 69.9336C63.877 69.8281 63.7832 69.6406 63.7598 69.4531C63.7363 69.2773 63.748 69.0781 63.7949 68.8672C63.8887 68.457 64.0879 68 64.3574 67.6016C64.4043 67.543 64.4746 67.4961 64.5566 67.4961C64.6855 67.4961 64.791 67.6016 64.791 67.7305C64.791 67.7891 64.7793 67.8242 64.7441 67.8711C64.5098 68.2227 64.3223 68.6328 64.252 68.9727C64.2168 69.1367 64.2051 69.2891 64.2285 69.3828C64.2402 69.4766 64.2637 69.5117 64.2988 69.5352C64.334 69.5586 64.3574 69.5586 64.4043 69.5469C64.4629 69.5352 64.5449 69.5117 64.6387 69.4414C64.8262 69.3242 65.0488 69.0898 65.2832 68.8438C65.8809 68.1875 66.4785 67.3555 66.4785 67.3555C66.5254 67.2969 66.5957 67.25 66.666 67.25ZM72.748 66.8281C72.877 66.8281 72.9707 66.9336 72.9707 67.0625C72.9707 67.0977 72.9707 67.1211 72.959 67.1445C72.959 67.1445 72.748 67.707 72.6074 68.1055C72.6543 68.0352 72.7012 67.9766 72.7363 67.918C72.9473 67.6367 73.123 67.4258 73.2871 67.2852C73.4512 67.1445 73.5918 67.0156 73.8145 67.0625C73.9316 67.0859 74.0137 67.1797 74.0605 67.2383C74.0957 67.3086 74.1191 67.3789 74.1309 67.4492C74.1777 67.5898 74.2012 67.7422 74.248 67.9062C74.3418 68.2344 74.5059 68.5625 74.9277 68.7852C75.5605 69.125 76.9082 69.1602 78.5371 68.3867C78.5723 68.375 78.6074 68.3633 78.6426 68.3633C78.7715 68.3633 78.877 68.4688 78.877 68.5977C78.877 68.6914 78.8184 68.7734 78.7363 68.8086C77.0254 69.6172 75.5605 69.6523 74.7051 69.207C74.1426 68.9023 73.9082 68.4219 73.8027 68.0352C73.7441 67.8477 73.709 67.6719 73.6855 67.5781C73.6621 67.5898 73.627 67.6016 73.6035 67.6367C73.4746 67.7422 73.3105 67.9297 73.123 68.1992C72.7246 68.7266 72.2207 69.5469 71.6113 70.6836C71.5762 70.7539 71.4941 70.8008 71.4121 70.8008C71.2832 70.8008 71.1777 70.6953 71.1777 70.5664C71.1777 70.5312 71.1777 70.4961 71.2012 70.4609V70.4492C71.2012 70.4492 71.248 70.3672 71.2949 70.25C71.3301 70.1445 71.3887 69.9922 71.459 69.8281C71.5879 69.4883 71.752 69.0547 71.9043 68.6328C72.2207 67.8008 72.5137 66.9805 72.5137 66.9805C72.5488 66.8984 72.6426 66.8281 72.7363 66.8281C72.748 66.8281 72.748 66.8281 72.748 66.8281ZM82.4512 66.7695C82.5801 66.7695 82.6855 66.875 82.6855 67.0039C82.6855 67.0508 82.6738 67.0859 82.6504 67.1211C82.498 67.3789 82.1934 68.082 81.9707 68.6914C81.9004 68.8789 81.8418 69.0664 81.7832 69.2188C81.7949 69.2188 81.7949 69.2188 81.7949 69.207C82.0879 68.8438 82.4512 68.3164 82.791 67.8828C82.9551 67.6719 83.1074 67.4844 83.2598 67.3438C83.3301 67.2734 83.4004 67.2148 83.4824 67.168C83.5527 67.1211 83.6582 67.0742 83.7871 67.1094C83.8809 67.1328 83.9395 67.1914 83.9746 67.25C83.998 67.2969 84.0098 67.332 84.0215 67.3789C84.0332 67.4609 84.0449 67.5547 84.0449 67.6484C84.0449 67.8359 84.0332 68.0703 84.0215 68.3047C84.0098 68.5391 83.998 68.7734 84.0098 68.9375V68.9492C84.0215 68.9375 84.0332 68.9258 84.0449 68.9141C84.1504 68.7852 84.3027 68.5977 84.4434 68.3984C84.584 68.1992 84.7363 67.9883 84.877 67.8359C84.9473 67.7539 85.0176 67.6836 85.0996 67.6367C85.1816 67.5781 85.3105 67.5195 85.4512 67.5664C85.5801 67.6016 85.6504 67.7305 85.6738 67.8125C85.6973 67.8945 85.709 67.9766 85.709 68.0586C85.7207 68.2227 85.7207 68.4102 85.7441 68.6094C85.8027 68.9961 85.9199 69.3594 86.4824 69.5586C87.1387 69.793 87.9941 69.6406 88.7559 69.3477C89.5176 69.0547 90.1855 68.6211 90.4316 68.4219C90.4785 68.3867 90.5254 68.3633 90.584 68.3633C90.7246 68.3633 90.8184 68.4688 90.8184 68.5977C90.8184 68.668 90.7949 68.7383 90.7363 68.7852C90.4199 69.043 89.7402 69.4766 88.9316 69.7812C88.1113 70.0977 87.1504 70.2969 86.3184 69.9922C85.5918 69.7344 85.3457 69.1484 85.2871 68.6797C85.252 68.457 85.252 68.2695 85.2402 68.1289C85.2402 68.1406 85.2285 68.1406 85.2168 68.1523C85.1113 68.2812 84.959 68.4688 84.8184 68.668C84.6777 68.8672 84.5371 69.0664 84.3965 69.2305C84.3262 69.3125 84.2559 69.3828 84.1738 69.4297C84.0918 69.4883 83.9863 69.5469 83.834 69.5117C83.6934 69.4648 83.623 69.3477 83.5879 69.2539C83.5645 69.1602 83.5527 69.0664 83.541 68.9727C83.5293 68.7617 83.541 68.5273 83.5527 68.2812C83.5645 68.0703 83.5762 67.8477 83.5762 67.6953C83.459 67.8008 83.3184 67.9766 83.1543 68.1758C82.8379 68.5859 82.4746 69.1133 82.1699 69.5C82.041 69.6523 81.9355 69.793 81.8301 69.8984C81.7832 69.957 81.7246 70.0039 81.6543 70.0391C81.584 70.0742 81.4668 70.1094 81.3496 70.0625C81.2441 70.0039 81.209 69.9102 81.1973 69.8516C81.1855 69.793 81.1855 69.7461 81.1973 69.6992C81.1973 69.6055 81.2207 69.5117 81.2559 69.3945C81.3145 69.1484 81.4082 68.8555 81.5254 68.5391C81.7598 67.8945 82.0527 67.2148 82.2402 66.8867C82.2871 66.8164 82.3574 66.7695 82.4512 66.7695ZM92.4824 66.6992C92.6934 66.6992 92.8809 66.8516 92.9512 67.0273C93.0098 67.2031 93.0215 67.3906 92.998 67.6016C92.9629 67.9648 92.8223 68.3984 92.6113 68.8203C92.7988 68.9961 93.0449 69.1484 93.3965 69.2656C94.7207 69.6758 96.5137 69.3477 98.0371 68.3984C98.0723 68.375 98.1191 68.3633 98.166 68.3633C98.2949 68.3633 98.4004 68.4688 98.4004 68.5977C98.4004 68.6797 98.3535 68.75 98.2949 68.7969C96.666 69.8047 94.7676 70.1797 93.2559 69.7109C92.8926 69.5938 92.6113 69.4297 92.3887 69.2305C92.2129 69.5 92.002 69.7578 91.7793 69.9453C91.498 70.1914 91.1465 70.3555 90.7949 70.2617C90.502 70.1914 90.3145 69.9336 90.2441 69.6758C90.1855 69.4062 90.209 69.125 90.2793 68.832C90.3496 68.5508 90.4668 68.2812 90.6191 68.0469C90.7832 67.8242 90.9824 67.6367 91.252 67.5898C91.4043 67.5664 91.5449 67.6016 91.627 67.6953C91.709 67.7773 91.7324 67.8945 91.7324 67.8945C91.7324 67.9062 91.7324 67.9062 91.7324 67.918C91.7324 68.0469 91.627 68.1523 91.498 68.1523C91.416 68.1523 91.3574 68.1172 91.3105 68.0586C91.2402 68.082 91.1113 68.1641 91.0059 68.3164C90.8887 68.4805 90.7832 68.7148 90.7363 68.9492C90.6777 69.1836 90.666 69.4062 90.7012 69.5586C90.7363 69.7227 90.7949 69.7812 90.9121 69.8164C91.0645 69.8516 91.252 69.7812 91.4746 69.5938C91.6855 69.418 91.8848 69.1484 92.0605 68.8555C91.8848 68.5859 91.791 68.293 91.7793 68.0117C91.7559 67.6836 91.8145 67.3906 91.9199 67.1562C92.0371 66.9219 92.2012 66.6992 92.4824 66.6992ZM92.5059 67.168C92.5059 67.168 92.4941 67.168 92.4824 67.168C92.5059 67.168 92.4238 67.2031 92.3535 67.3555C92.2715 67.5078 92.2246 67.7305 92.2363 67.9766C92.248 68.0938 92.2715 68.2227 92.3184 68.3398C92.4355 68.0586 92.5059 67.7773 92.5293 67.5547C92.5527 67.3906 92.5293 67.25 92.5059 67.2031C92.5059 67.1797 92.5059 67.168 92.5059 67.168ZM98.8926 66.7695C99.0215 66.7695 99.127 66.875 99.127 67.0039C99.127 67.0508 99.1152 67.0859 99.0918 67.1211C98.9395 67.3789 98.6348 68.082 98.4121 68.6914C98.3418 68.8789 98.2832 69.0664 98.2246 69.2188C98.2363 69.2188 98.2363 69.2188 98.2363 69.207C98.5293 68.8438 98.8926 68.3164 99.2324 67.8828C99.3965 67.6719 99.5488 67.4844 99.7012 67.3438C99.7715 67.2734 99.8418 67.2148 99.9238 67.168C99.9941 67.1211 100.1 67.0742 100.229 67.1094C100.322 67.1328 100.381 67.1914 100.416 67.25C100.439 67.2969 100.451 67.332 100.463 67.3789C100.475 67.4609 100.486 67.5547 100.486 67.6484C100.486 67.8359 100.475 68.0703 100.463 68.3047C100.451 68.5391 100.439 68.7734 100.451 68.9375V68.9492C100.463 68.9375 100.475 68.9258 100.486 68.9141C100.592 68.7852 100.744 68.5977 100.885 68.3984C101.025 68.1992 101.178 67.9883 101.318 67.8359C101.389 67.7539 101.459 67.6836 101.541 67.6367C101.623 67.5781 101.752 67.5195 101.893 67.5664C102.021 67.6016 102.092 67.7305 102.115 67.8125C102.139 67.8945 102.15 67.9766 102.15 68.0586C102.162 68.2227 102.162 68.4102 102.186 68.6094C102.244 68.9961 102.361 69.3594 102.924 69.5586C103.58 69.793 104.436 69.6406 105.197 69.3477C105.959 69.0547 106.627 68.6211 106.873 68.4219C106.92 68.3867 106.967 68.3633 107.025 68.3633C107.166 68.3633 107.26 68.4688 107.26 68.5977C107.26 68.668 107.236 68.7383 107.178 68.7852C106.861 69.043 106.182 69.4766 105.373 69.7812C104.553 70.0977 103.592 70.2969 102.76 69.9922C102.033 69.7344 101.787 69.1484 101.729 68.6797C101.693 68.457 101.693 68.2695 101.682 68.1289C101.682 68.1406 101.67 68.1406 101.658 68.1523C101.553 68.2812 101.4 68.4688 101.26 68.668C101.119 68.8672 100.979 69.0664 100.838 69.2305C100.768 69.3125 100.697 69.3828 100.615 69.4297C100.533 69.4883 100.428 69.5469 100.275 69.5117C100.135 69.4648 100.064 69.3477 100.029 69.2539C100.006 69.1602 99.9941 69.0664 99.9824 68.9727C99.9707 68.7617 99.9824 68.5273 99.9941 68.2812C100.006 68.0703 100.018 67.8477 100.018 67.6953C99.9004 67.8008 99.7598 67.9766 99.5957 68.1758C99.2793 68.5859 98.916 69.1133 98.6113 69.5C98.4824 69.6523 98.377 69.793 98.2715 69.8984C98.2246 69.957 98.166 70.0039 98.0957 70.0391C98.0254 70.0742 97.9082 70.1094 97.791 70.0625C97.6855 70.0039 97.6504 69.9102 97.6387 69.8516C97.627 69.793 97.627 69.7461 97.6387 69.6992C97.6387 69.6055 97.6621 69.5117 97.6973 69.3945C97.7559 69.1484 97.8496 68.8555 97.9668 68.5391C98.2012 67.8945 98.4941 67.2148 98.6816 66.8867C98.7285 66.8164 98.7988 66.7695 98.8926 66.7695ZM108.279 67.2148C108.467 67.2148 108.654 67.2734 108.76 67.4375C108.889 67.625 108.854 67.8477 108.771 68.0352C108.689 68.2109 108.561 68.3867 108.396 68.5508C108.104 68.832 107.693 69.0781 107.248 69.1719C107.295 69.418 107.459 69.6055 107.717 69.7578C108.068 69.9688 108.607 70.0742 109.252 70.0625C110.553 70.0391 112.275 69.5 113.775 68.3984C113.822 68.375 113.869 68.3516 113.916 68.3516C114.045 68.3516 114.15 68.457 114.15 68.5859C114.15 68.668 114.115 68.7383 114.057 68.7852C112.475 69.9336 110.682 70.4961 109.264 70.5312C108.561 70.543 107.939 70.4375 107.482 70.168C107.025 69.8984 106.732 69.4297 106.768 68.8789C106.803 68.293 107.154 67.8125 107.553 67.5078C107.752 67.3672 107.951 67.2617 108.162 67.2266C108.186 67.2148 108.221 67.2148 108.244 67.2148C108.256 67.2148 108.268 67.2148 108.279 67.2148ZM108.326 67.6719C108.314 67.6719 108.314 67.6719 108.303 67.6719C108.291 67.6836 108.268 67.6836 108.244 67.6836C108.139 67.707 107.986 67.7773 107.834 67.8828C107.588 68.0703 107.365 68.3633 107.283 68.6797C107.564 68.5859 107.857 68.4102 108.068 68.2109C108.197 68.082 108.303 67.9414 108.35 67.8477C108.385 67.7422 108.373 67.707 108.373 67.707C108.361 67.6836 108.35 67.6719 108.326 67.6719ZM114.736 66.7695C114.865 66.7695 114.971 66.875 114.971 67.0039C114.971 67.0625 114.947 67.1094 114.924 67.1445C114.76 67.3672 114.42 68.0586 114.174 68.668C114.127 68.7852 114.08 68.9023 114.045 69.0195C114.174 68.8672 114.303 68.7031 114.455 68.5391C114.689 68.2812 114.936 68.0352 115.158 67.8477C115.264 67.7539 115.357 67.6719 115.463 67.625C115.568 67.5664 115.686 67.4961 115.861 67.5781C115.967 67.6367 116.014 67.7422 116.037 67.8125C116.049 67.8945 116.061 67.9531 116.061 68.0234C116.061 68.1758 116.049 68.3398 116.049 68.5039C116.061 68.8438 116.119 69.1836 116.365 69.3828C116.693 69.6523 117.338 69.7461 118.17 69.5938C119.002 69.4297 119.986 69.0312 120.971 68.3984C121.006 68.375 121.053 68.3633 121.1 68.3633C121.229 68.3633 121.334 68.4688 121.334 68.5977C121.334 68.6797 121.287 68.7617 121.217 68.7969C120.197 69.4531 119.166 69.875 118.264 70.0508C117.361 70.2266 116.564 70.168 116.061 69.7461C115.65 69.4062 115.592 68.9023 115.58 68.5156C115.58 68.3516 115.592 68.2109 115.592 68.0938C115.545 68.1289 115.51 68.1641 115.463 68.1992C115.264 68.3633 115.029 68.6094 114.807 68.8555C114.561 69.125 114.326 69.418 114.139 69.6289C114.045 69.7344 113.975 69.8281 113.904 69.8984C113.869 69.9336 113.846 69.957 113.811 69.9805C113.799 69.9922 113.775 70.0156 113.74 70.0273C113.705 70.0391 113.623 70.0859 113.518 70.0273C113.412 69.9688 113.389 69.875 113.377 69.8164C113.365 69.7578 113.365 69.7109 113.377 69.6641C113.389 69.5703 113.412 69.4648 113.436 69.3477C113.506 69.1133 113.611 68.8086 113.74 68.4922C113.986 67.8594 114.303 67.1914 114.537 66.8633C114.584 66.8047 114.654 66.7695 114.736 66.7695ZM124.486 62.9023C124.568 62.9023 124.65 62.9141 124.732 62.9609C124.826 63.0312 124.885 63.1367 124.896 63.2422C124.92 63.3359 124.908 63.418 124.885 63.5117C124.838 63.6875 124.756 63.8984 124.639 64.1211C124.533 64.332 124.404 64.543 124.264 64.7773C125.436 64.7773 126.537 64.8594 127.275 65.082C127.369 65.1055 127.439 65.1992 127.439 65.3047C127.439 65.4336 127.334 65.5391 127.205 65.5391C127.182 65.5391 127.158 65.5391 127.135 65.5273C126.455 65.3281 125.225 65.2461 123.959 65.2578C123.854 65.4102 123.736 65.5742 123.619 65.7383C123.209 66.3242 122.764 66.9219 122.365 67.4023C121.99 67.8711 121.674 68.2227 121.451 68.4336C121.123 69.5586 121.334 70.2734 121.686 70.6133C121.943 70.8711 122.295 71 122.752 71C123.209 71 123.748 70.8828 124.311 70.6602C125.436 70.2148 126.643 69.3711 127.51 68.4336C127.545 68.3867 127.615 68.3633 127.686 68.3633C127.814 68.3633 127.92 68.4688 127.92 68.5977C127.92 68.6562 127.885 68.7148 127.85 68.75C126.936 69.7461 125.693 70.6133 124.486 71.0938C123.877 71.3281 123.291 71.4688 122.752 71.4688C122.213 71.4688 121.709 71.3164 121.346 70.9531C120.795 70.3906 120.607 69.3477 121.123 67.9062C121.439 67.0391 121.873 66.1133 122.33 65.3164C121.768 65.3516 121.24 65.3984 120.783 65.457C120.162 65.5273 119.658 65.6328 119.482 65.7031C119.459 65.7148 119.424 65.7266 119.4 65.7266C119.26 65.7266 119.166 65.6211 119.166 65.4922C119.166 65.3867 119.225 65.3047 119.307 65.2695C119.6 65.1523 120.08 65.0703 120.725 64.9883C121.275 64.918 121.932 64.8594 122.623 64.8242C122.705 64.6836 122.799 64.543 122.893 64.4023C123.209 63.9219 123.525 63.5234 123.818 63.2539C123.959 63.1133 124.1 63.0195 124.24 62.9492C124.311 62.9258 124.404 62.9023 124.486 62.9023ZM124.428 63.3828C124.357 63.4062 124.252 63.4883 124.135 63.5938C123.889 63.8164 123.596 64.2031 123.279 64.6602C123.256 64.707 123.221 64.7539 123.186 64.8008C123.361 64.7891 123.537 64.7891 123.701 64.7891C123.912 64.4609 124.088 64.168 124.217 63.9102C124.334 63.6992 124.404 63.5234 124.428 63.4062C124.428 63.3945 124.428 63.3945 124.428 63.3828ZM123.385 65.2578C123.244 65.2695 123.104 65.2695 122.963 65.2812C122.939 65.2812 122.916 65.2812 122.893 65.2812C122.541 65.8672 122.201 66.5469 121.908 67.2148C121.932 67.1797 121.967 67.1445 122.002 67.1094C122.389 66.6289 122.834 66.043 123.232 65.4688C123.291 65.3984 123.338 65.3281 123.385 65.2578ZM134.025 62.8906C134.119 62.8906 134.201 62.9141 134.283 62.9609C134.447 63.0781 134.482 63.2773 134.471 63.4414C134.459 63.6055 134.412 63.7812 134.33 63.9805C134.166 64.3789 133.885 64.8594 133.545 65.3633C132.865 66.3594 131.951 67.4609 131.189 68.1172C131.049 68.4922 130.932 68.8438 130.85 69.1484C131.389 68.6562 132.268 67.8828 133.229 67.1445C133.264 67.1094 133.311 67.0977 133.369 67.0977C133.498 67.0977 133.604 67.2031 133.604 67.332C133.604 67.4023 133.568 67.4727 133.51 67.5195C133.088 67.8359 132.689 68.1641 132.314 68.4805C132.443 69.0664 132.877 69.5469 133.85 69.6875C134.928 69.8516 136.322 69.3828 137.67 68.4102C137.717 68.375 137.764 68.3633 137.811 68.3633C137.939 68.3633 138.045 68.4688 138.045 68.5977C138.045 68.6797 138.01 68.75 137.951 68.7852C136.533 69.8164 135.033 70.332 133.779 70.1562C132.783 70.0039 132.174 69.4766 131.928 68.8086C131.213 69.4297 130.721 69.8984 130.662 69.957C130.615 70.0039 130.557 70.0391 130.475 70.0391C130.451 70.0391 130.416 70.0391 130.393 70.0273C130.393 70.0273 130.393 70.0273 130.381 70.0273C130.381 70.0156 130.381 70.0156 130.369 70.0156C130.369 70.0156 130.357 70.0156 130.357 70.0039C130.287 69.957 130.24 69.8867 130.24 69.8047C130.24 69.793 130.24 69.7695 130.252 69.7578C130.346 68.7148 131.084 66.9805 131.881 65.4805C132.291 64.7305 132.713 64.0508 133.1 63.5703C133.299 63.3359 133.475 63.1484 133.65 63.0312C133.744 62.9727 133.838 62.9141 133.943 62.9023C133.967 62.8906 134.002 62.8906 134.025 62.8906ZM134.014 63.3711C133.99 63.3711 133.955 63.3945 133.92 63.418C133.803 63.4883 133.639 63.6523 133.463 63.875C133.111 64.3086 132.701 64.9648 132.303 65.7031C132.08 66.1133 131.857 66.5586 131.658 66.9922C132.186 66.4297 132.725 65.7383 133.158 65.0938C133.486 64.6133 133.756 64.1445 133.896 63.8047C133.967 63.6289 134.002 63.4883 134.014 63.4062C134.014 63.3828 134.014 63.3828 134.014 63.3711ZM139.943 67.1562C139.955 67.1562 139.955 67.1562 139.955 67.1562C140.084 67.1562 140.189 67.2617 140.189 67.3906C140.189 67.4258 140.178 67.4609 140.166 67.4961C139.885 68.0586 139.873 68.5156 140.049 68.8789C140.213 69.2422 140.553 69.5234 141.057 69.6641C142.064 69.9688 143.658 69.6875 145.229 68.4219C145.275 68.3867 145.322 68.3633 145.381 68.3633C145.51 68.3633 145.615 68.4688 145.615 68.5977C145.615 68.668 145.58 68.7383 145.533 68.7852C143.869 70.1328 142.135 70.4727 140.928 70.1211C140.33 69.9453 139.85 69.582 139.615 69.0781C139.521 68.8789 139.475 68.6562 139.463 68.4336C139.357 68.5625 139.252 68.7031 139.135 68.8438C138.865 69.1602 138.596 69.4766 138.338 69.6992C138.209 69.8047 138.092 69.8984 137.963 69.957C137.834 70.0156 137.646 70.0508 137.494 69.9336C137.389 69.8516 137.342 69.7344 137.318 69.6289C137.307 69.5117 137.318 69.4062 137.33 69.2891C137.365 69.0547 137.459 68.7969 137.576 68.5391C137.705 68.293 137.869 68.0469 138.057 67.8477C138.244 67.6602 138.479 67.4961 138.748 67.4961C139.064 67.4961 139.264 67.6719 139.369 67.7891C139.592 67.4961 139.744 67.2734 139.744 67.2734C139.756 67.2617 139.768 67.25 139.779 67.2383C139.826 67.1914 139.885 67.1562 139.943 67.1562ZM138.748 67.9648C138.666 67.9648 138.525 68.0352 138.385 68.1758C138.244 68.3164 138.104 68.5273 137.998 68.75C137.893 68.9727 137.822 69.1953 137.799 69.3594C137.787 69.4297 137.787 69.4766 137.787 69.5117C137.846 69.4883 137.928 69.4297 138.033 69.3359C138.244 69.1484 138.514 68.8555 138.771 68.5508C138.877 68.4219 138.982 68.293 139.076 68.1758C139.064 68.1641 139.053 68.1523 139.053 68.1406C139.053 68.1406 138.947 67.9648 138.748 67.9648ZM146.096 66.7695C146.225 66.7695 146.33 66.875 146.33 67.0039C146.33 67.0508 146.318 67.0859 146.295 67.1211C146.143 67.3789 145.838 68.082 145.615 68.6914C145.545 68.8789 145.486 69.0664 145.428 69.2188C145.439 69.2188 145.439 69.2188 145.439 69.207C145.732 68.8438 146.096 68.3164 146.436 67.8828C146.6 67.6719 146.752 67.4844 146.904 67.3438C146.975 67.2734 147.045 67.2148 147.127 67.168C147.197 67.1211 147.303 67.0742 147.432 67.1094C147.525 67.1328 147.584 67.1914 147.619 67.25C147.643 67.2969 147.654 67.332 147.666 67.3789C147.678 67.4609 147.689 67.5547 147.689 67.6484C147.689 67.8359 147.678 68.0703 147.666 68.3047C147.654 68.5391 147.643 68.7734 147.654 68.9375V68.9492C147.666 68.9375 147.678 68.9258 147.689 68.9141C147.795 68.7852 147.947 68.5977 148.088 68.3984C148.229 68.1992 148.381 67.9883 148.521 67.8359C148.592 67.7539 148.662 67.6836 148.744 67.6367C148.826 67.5781 148.955 67.5195 149.096 67.5664C149.225 67.6016 149.295 67.7305 149.318 67.8125C149.342 67.8945 149.354 67.9766 149.354 68.0586C149.365 68.2227 149.365 68.4102 149.389 68.6094C149.447 68.9961 149.564 69.3594 150.127 69.5586C150.783 69.793 151.639 69.6406 152.4 69.3477C153.162 69.0547 153.83 68.6211 154.076 68.4219C154.123 68.3867 154.17 68.3633 154.229 68.3633C154.369 68.3633 154.463 68.4688 154.463 68.5977C154.463 68.668 154.439 68.7383 154.381 68.7852C154.064 69.043 153.385 69.4766 152.576 69.7812C151.756 70.0977 150.795 70.2969 149.963 69.9922C149.236 69.7344 148.99 69.1484 148.932 68.6797C148.896 68.457 148.896 68.2695 148.885 68.1289C148.885 68.1406 148.873 68.1406 148.861 68.1523C148.756 68.2812 148.604 68.4688 148.463 68.668C148.322 68.8672 148.182 69.0664 148.041 69.2305C147.971 69.3125 147.9 69.3828 147.818 69.4297C147.736 69.4883 147.631 69.5469 147.479 69.5117C147.338 69.4648 147.268 69.3477 147.232 69.2539C147.209 69.1602 147.197 69.0664 147.186 68.9727C147.174 68.7617 147.186 68.5273 147.197 68.2812C147.209 68.0703 147.221 67.8477 147.221 67.6953C147.104 67.8008 146.963 67.9766 146.799 68.1758C146.482 68.5859 146.119 69.1133 145.814 69.5C145.686 69.6523 145.58 69.793 145.475 69.8984C145.428 69.957 145.369 70.0039 145.299 70.0391C145.229 70.0742 145.111 70.1094 144.994 70.0625C144.889 70.0039 144.854 69.9102 144.842 69.8516C144.83 69.793 144.83 69.7461 144.842 69.6992C144.842 69.6055 144.865 69.5117 144.9 69.3945C144.959 69.1484 145.053 68.8555 145.17 68.5391C145.404 67.8945 145.697 67.2148 145.885 66.8867C145.932 66.8164 146.002 66.7695 146.096 66.7695ZM156.795 67.25C156.924 67.25 157.029 67.3555 157.029 67.4844C157.029 67.5195 157.029 67.543 157.018 67.5664C156.748 68.3398 156.795 68.8438 157.029 69.1836C157.252 69.5234 157.697 69.7461 158.354 69.8164C159.361 69.9219 160.896 69.4062 162.127 68.4219C162.162 68.3867 162.221 68.3633 162.279 68.3633C162.408 68.3633 162.514 68.4688 162.514 68.5977C162.514 68.6797 162.479 68.75 162.42 68.7852C161.107 69.8398 159.514 70.4023 158.307 70.2852C157.568 70.2031 156.971 69.9453 156.631 69.4531C156.455 69.1719 156.361 68.832 156.373 68.4336C156.186 68.668 155.975 68.9258 155.752 69.1602C155.518 69.418 155.271 69.6641 155.025 69.8398C154.896 69.9219 154.768 69.9805 154.615 70.0156C154.475 70.0391 154.311 70.0156 154.17 69.9336C154.006 69.8281 153.912 69.6406 153.889 69.4531C153.865 69.2773 153.877 69.0781 153.924 68.8672C154.018 68.457 154.217 68 154.486 67.6016C154.533 67.543 154.604 67.4961 154.686 67.4961C154.814 67.4961 154.92 67.6016 154.92 67.7305C154.92 67.7891 154.908 67.8242 154.873 67.8711C154.639 68.2227 154.451 68.6328 154.381 68.9727C154.346 69.1367 154.334 69.2891 154.357 69.3828C154.369 69.4766 154.393 69.5117 154.428 69.5352C154.463 69.5586 154.486 69.5586 154.533 69.5469C154.592 69.5352 154.674 69.5117 154.768 69.4414C154.955 69.3242 155.178 69.0898 155.412 68.8438C156.01 68.1875 156.607 67.3555 156.607 67.3555C156.654 67.2969 156.725 67.25 156.795 67.25Z" fill="url(#paint0_linear_78_58)"/>
<defs>
<linearGradient id="paint0_linear_78_58" x1="46.3836" y1="61.1679" x2="54.7841" y2="90.6121" gradientUnits="userSpaceOnUse">
<stop stop-color="#383838"/>
<stop offset="1" stop-color="#141414"/>
</linearGradient>
</defs>
</svg>
